<svg viewBox="0 0 24 24" xmlns="http://www.w3.org/2000/svg" fill-rule="evenodd" clip-rule="evenodd" stroke-linecap="round" stroke-linejoin="round"><path d="M14.694 5.252a5.008 5.008 0 013.95 3.95m-3.95-7.95a9.025 9.025 0 017.95 7.94m-1 7.98v3.008a2.01 2.01 0 01-2.18 1.992 19.788 19.788 0 01-8.63-3.07 19.496 19.496 0 01-6-6 19.788 19.788 0 01-3.07-8.67 2.01 2.01 0 011.99-2.18h3c.999-.01 1.86.731 2 1.72.127.96.361 1.903.7 2.81.274.73.098 1.556-.45 2.11l-1.27 1.27a16 16 0 006 6l1.27-1.27a2.003 2.003 0 012.11-.45c.907.339 1.85.573 2.81.7a2.007 2.007 0 011.72 2.03z" fill="none" stroke="#367df9" stroke-width="2"/></svg>