<svg viewBox="0 0 72 63" xmlns="http://www.w3.org/2000/svg" fill-rule="evenodd" clip-rule="evenodd" stroke-linejoin="round" stroke-miterlimit="2"><path d="M.448 50.31h5.937a1.768 1.768 0 001.25-.495 1.6 1.6 0 00.374-.55c.087-.212.13-.436.13-.672 0-.399-.115-.703-.345-.915-.23-.212-.538-.376-.924-.495a7.36 7.36 0 00-1.307-.261 80.346 80.346 0 01-1.493-.187 14.35 14.35 0 01-1.494-.28 4.106 4.106 0 01-1.307-.56 2.801 2.801 0 01-.924-1.017C.115 44.455 0 43.907 0 43.234a3.586 3.586 0 011.054-2.557c.33-.324.713-.579 1.148-.765.436-.187.903-.28 1.4-.28h6.106v1.848H3.603c-.25 0-.48.046-.691.14a1.792 1.792 0 00-.55.373 1.785 1.785 0 00-.514 1.241c0 .4.115.71.345.934.23.224.538.395.924.514.386.118.822.205 1.307.26.486.057.983.12 1.494.187.51.069 1.008.162 1.493.28.486.119.921.302 1.307.551.386.25.694.586.924 1.008.23.424.346.965.346 1.625 0 .51-.097.98-.29 1.41a3.765 3.765 0 01-.775 1.129 3.445 3.445 0 01-1.148.756 3.65 3.65 0 01-1.39.27H.448V50.31zm10.659-10.735h1.849V52.16h-1.849zm13.05 12.584h-1.325l-6.908-8.887v8.887h-1.848V39.575h1.307l6.926 8.906v-8.906h1.848V52.16zm7.15-10.735v10.735H29.46V41.424h-4.182v-1.849H35.49v1.849h-4.182zm7.151 5.358v3.528H45.7v1.849h-9.09v-7.226h9.092v1.849h-7.243zm-1.849-5.358v-1.849h9.092v1.849H36.61zM47.27 50.31h5.936a1.768 1.768 0 001.25-.495c.163-.155.288-.338.375-.55a1.75 1.75 0 00.13-.672c0-.399-.115-.703-.345-.915-.23-.212-.539-.376-.924-.495a7.36 7.36 0 00-1.307-.261 80.426 80.426 0 01-1.494-.187 14.35 14.35 0 01-1.493-.28 4.106 4.106 0 01-1.307-.56 2.801 2.801 0 01-.924-1.017c-.23-.423-.346-.971-.346-1.644a3.586 3.586 0 011.055-2.557c.33-.324.713-.579 1.148-.765.436-.187.903-.28 1.4-.28h6.106v1.848h-6.105c-.25 0-.48.046-.691.14a1.792 1.792 0 00-.55.373 1.751 1.751 0 00-.374.56c-.094.218-.14.445-.14.681 0 .4.115.71.345.934.23.224.538.395.924.514.386.118.822.205 1.307.26.485.057.983.12 1.494.187.51.069 1.008.162 1.493.28.485.119.921.302 1.307.551.385.25.694.586.924 1.008.23.424.345.965.345 1.625 0 .51-.096.98-.288 1.41a3.786 3.786 0 01-.776 1.129 3.438 3.438 0 01-1.147.756 3.66 3.66 0 01-1.392.27H47.27V50.31zm10.66-10.735h1.847V52.16H57.93zm3.416 10.735h5.937a1.79 1.79 0 001.25-.495c.162-.155.286-.338.374-.55a1.75 1.75 0 00.13-.672c0-.399-.115-.703-.345-.915-.23-.212-.538-.376-.924-.495a7.359 7.359 0 00-1.307-.261 80.281 80.281 0 01-1.493-.187 14.378 14.378 0 01-1.494-.28 4.11 4.11 0 01-1.307-.56 2.8 2.8 0 01-.924-1.017c-.23-.423-.345-.971-.345-1.644a3.58 3.58 0 011.054-2.557c.33-.324.713-.579 1.148-.765.436-.187.903-.28 1.4-.28h6.106v1.848h-6.105c-.25 0-.48.046-.69.14a1.787 1.787 0 00-.551.373c-.156.156-.28.343-.374.56a1.71 1.71 0 00-.14.681c0 .4.115.71.345.934.23.224.539.395.925.514.385.118.821.205 1.306.26.486.057.983.12 1.494.187.51.069 1.008.162 1.494.28.485.119.92.302 1.306.551.386.25.694.586.925 1.008.23.424.345.965.345 1.625 0 .51-.097.98-.29 1.41a3.78 3.78 0 01-.774 1.129 3.442 3.442 0 01-1.149.756 3.64 3.64 0 01-1.39.27h-5.937V50.31z" fill="#0e84c7" fill-rule="nonzero"/><path d="M.403 61.09h2.13c.326 0 .633-.063.922-.188.289-.127.54-.296.752-.508.212-.213.381-.464.507-.752.127-.289.19-.596.19-.922 0-.325-.063-.632-.19-.92a2.485 2.485 0 00-.507-.757 2.338 2.338 0 00-1.673-.692H1.349v2.867H.363v-3.853h2.17c.465 0 .9.088 1.305.263a3.417 3.417 0 011.788 1.788c.176.405.264.84.264 1.304 0 .466-.088.901-.264 1.31a3.347 3.347 0 01-.722 1.065c-.306.303-.66.541-1.066.718-.405.175-.84.263-1.304.263H.403v-.985zm9.061-1.881v1.882h3.864v.985h-4.85v-3.853h4.85v.986H9.464zM8.48 56.35v-.986h4.849v.986h-4.85zm12.814 5.726h-.706l-3.685-4.74v4.74h-.986v-6.711h.697l3.695 4.75v-4.75h.985v6.711zM27.1 56.35v5.726h-.986v-5.725h-2.23v-.986h5.447v.986H27.1zm5.387-.985h.677l2.56 6.711h-1.056l-1.842-4.84-1.842 4.84h-1.056l2.56-6.711zm9.958 6.711h-1.772a2.949 2.949 0 01-2.634-1.827 2.885 2.885 0 01-.224-1.13v-3.744h.986v3.744a1.968 1.968 0 001.14 1.798c.229.109.476.167.742.174h1.762v.985zm12.198 0h-1.772a2.949 2.949 0 01-2.634-1.827 2.885 2.885 0 01-.224-1.13v-3.744H51v3.744a1.97 1.97 0 001.14 1.798c.23.109.477.167.742.174h1.762v.985zm5.149-6.711h.677l2.56 6.711h-1.056l-1.842-4.84-1.843 4.84h-1.055l2.559-6.711zm10.765 3.345c.199.174.354.384.468.633.112.249.169.516.169.801a1.923 1.923 0 01-1.175 1.773c-.233.1-.481.15-.747.15h-.777v-.986h.777a.943.943 0 00.862-.568.896.896 0 00.074-.369.962.962 0 00-.274-.662.928.928 0 00-.299-.199.907.907 0 00-.363-.074v-.986a.943.943 0 00.862-.568.896.896 0 00.074-.369.953.953 0 00-.274-.662.928.928 0 00-.299-.199.907.907 0 00-.363-.074h-2.669v5.725h-.985v-6.711h3.654c.266 0 .514.05.747.15a1.945 1.945 0 011.025 1.025c.1.232.15.481.15.746a1.881 1.881 0 01-.637 1.424z" fill="#367df9" fill-rule="nonzero"/><path d="M40.495 8.434l-3.07.704-2.22-4.354-2.35 4.505 2.35 2.794 3.722.755 2.65 7.14-6.372.838-6.677-.682 1.75-4.947 2.83 1.282 1.945 3.937.565-.435 1.782-3.457-2.03-4.003-.328-.179-3.795.726-1.372-4.523 5.41-4.012 5.21 3.91z" fill="#0e84c7" fill-rule="nonzero"/><path d="M38.277 26.315c1.585 2.938 3.03 5.962 4.72 8.84-.066-3.057-.03-6.117-.1-9.175-1.542.08-3.078.279-4.62.335zm-10.761-.33c-.061 3.055-.032 6.115-.104 9.17a6.31 6.31 0 00.588-.948c1.36-2.644 2.777-5.255 4.132-7.9-1.543-.035-3.074-.259-4.616-.322zm16.002-.669c-.485.673-.24 1.536-.279 2.304.118 1.873-.077 3.765.166 5.624.53-3.42 1.019-6.85 1.533-10.272-.52.752-.94 1.568-1.42 2.344zm-14.74-4.659c-.379 1.665-.823 3.316-1.212 4.981 1.483.147 2.976.209 4.455.387a155.486 155.486 0 00-3.244-5.368zm9.6 5.353c1.491-.152 2.988-.227 4.479-.379-.41-1.642-.83-3.28-1.208-4.928-1.195 1.696-2.17 3.547-3.27 5.307zm3.534-5.49c.462 1.585.72 3.23 1.264 4.787.591-1.066 1.22-2.11 1.844-3.16-1.035-.545-2.073-1.084-3.108-1.628zm-6.455.434c.867 1.647 1.714 3.307 2.614 4.936 1.096-1.83 2.206-3.654 3.302-5.484-1.97.192-3.941.392-5.916.548zm-6.415-.546c1.12 1.821 2.161 3.692 3.341 5.475a209.858 209.858 0 012.578-4.9c-1.97-.224-3.948-.369-5.919-.575zm-3.649 1.742c.664 1.04 1.203 2.154 1.912 3.164.394-1.601.775-3.205 1.2-4.797-1.037.546-2.076 1.087-3.112 1.633zm10.08-1.52c1.939-.158 3.87-.387 5.812-.525-1.264-1.137-2.596-2.195-3.862-3.332-.661 1.282-1.28 2.582-1.95 3.857zm-6.354-.512c1.94.105 3.864.365 5.801.512-.632-1.29-1.284-2.57-1.92-3.86-1.287 1.126-2.608 2.211-3.88 3.348zm-3.692 1.633c1.045-.518 2.07-1.071 3.101-1.617-.505-1.218-.987-2.446-1.492-3.665-.553 1.756-1.036 3.534-1.609 5.282zm16.456-1.61c1.037.532 2.059 1.092 3.103 1.613-.571-1.744-1.051-3.516-1.606-5.264-.521 1.207-.99 2.437-1.497 3.65zm4.446-5.606c-.283 2.285-.55 4.57-.856 6.854 1.123-1.518 2.131-3.119 3.216-4.664-.797-.72-1.576-1.456-2.36-2.19zM43.58 16.06c.549 1.674 1.02 3.373 1.532 5.058.446-2.167.555-4.396.897-6.587-.827.485-1.624 1.013-2.429 1.53zm-19.166-1.54c.31 2.202.457 4.433.876 6.616.528-1.683.968-3.393 1.55-5.06-.798-.537-1.622-1.03-2.426-1.556zm-2.689 2.22c1.088 1.54 2.098 3.132 3.21 4.654a882.01 882.01 0 01-.847-6.849c-.8.716-1.574 1.463-2.363 2.195zm17.765-3.432c.73 2.136 1.474 4.268 2.179 6.413.568-1.203.996-2.465 1.547-3.674-1.232-.929-2.485-1.826-3.726-2.739zm-1.93 3.171c1.244 1.09 2.512 2.148 3.77 3.221-.714-2.129-1.469-4.247-2.157-6.385-.587 1.03-1.063 2.116-1.613 3.164zm-2.163-3.415a221.39 221.39 0 000 6.915c.68-1.11 1.178-2.317 1.787-3.463-.634-1.133-1.105-2.35-1.787-3.452zm-2.172 3.456c.623 1.14 1.098 2.356 1.796 3.452.027-2.303.025-4.61.002-6.913-.684 1.11-1.17 2.322-1.798 3.461zm-1.98-3.198c-.706 2.134-1.445 4.258-2.165 6.387 1.26-1.071 2.512-2.151 3.773-3.218-.539-1.056-1.033-2.134-1.608-3.169zm-4.054 2.732c.564 1.2.967 2.47 1.556 3.66.695-2.134 1.438-4.252 2.165-6.376-1.26.879-2.496 1.791-3.721 2.716zm12.727-2.888c1.105.937 2.33 1.721 3.475 2.611.797-.489 1.587-.987 2.373-1.492-1.95-.365-3.905-.712-5.848-1.12zM24.7 14.277c.732.555 1.536 1 2.304 1.5 1.155-.889 2.398-1.666 3.497-2.626-1.92.437-3.869.743-5.8 1.126zm10.807-1.858c.589 1.246 1.23 2.467 1.828 3.713.586-1.02 1.075-2.093 1.592-3.148a75.316 75.316 0 01-3.42-.565zm-4.028.571c.524 1.058 1.036 2.12 1.586 3.164.607-1.247 1.25-2.477 1.844-3.73-1.142.197-2.283.403-3.43.566zm5.914-3.397c-.611.856-1.268 1.68-1.925 2.503 1.144.19 2.29.382 3.436.568-.523-1.015-.917-2.095-1.51-3.071zm-4.453.022a187.345 187.345 0 01-1.436 3.054c1.14-.18 2.272-.404 3.418-.544-.652-.843-1.277-1.71-1.982-2.51zm13.466 4.54c.777.758 1.576 1.49 2.374 2.224.444-2.693.97-5.373 1.363-8.073-1.28 1.928-2.455 3.923-3.737 5.848zM20.268 8.303c.394 2.693.926 5.368 1.354 8.057.8-.693 1.583-1.41 2.33-2.161-1.138-2.005-2.443-3.941-3.684-5.896zm19.313 4.491c2.148.397 4.3.786 6.44 1.224-.116-1.996-.21-3.994-.358-5.99-2.018 1.602-4.08 3.147-6.082 4.766zM25.153 7.93c1.919 1.506 3.828 3.026 5.783 4.485-.417-1.264-.784-2.541-1.191-3.808-1.532-.215-3.067-.41-4.592-.677zm-.41.104c-.138 1.991-.21 3.985-.378 5.976 2.163-.406 4.324-.83 6.492-1.217-2.032-1.594-4.08-3.169-6.114-4.759zm15.914.592c-.394 1.263-.768 2.534-1.187 3.791a209.76 209.76 0 005.738-4.462c-1.516.238-3.038.43-4.55.67zm5.33-.741c.138 1.923.226 3.846.356 5.769 1.32-1.993 2.534-4.057 3.87-6.04-1.408.099-2.82.135-4.226.27zm-25.756-.26c1.278 2.002 2.544 4.01 3.812 6.018.186-1.914.252-3.84.367-5.76-1.39-.132-2.786-.18-4.179-.259zm15.165-2.25c-.05 2.104-.003 4.213-.025 6.32.67-.795 1.282-1.638 1.925-2.453-.655-1.278-1.144-2.648-1.9-3.867zm-2.288 3.878c.641.836 1.287 1.667 1.934 2.498-.016-2.131.018-4.265-.025-6.396-.745 1.239-1.252 2.61-1.909 3.898zm2.51-4.317c1.207 2.482 2.324 5.01 3.549 7.486.36-1.305.78-2.591 1.178-3.885a562.646 562.646 0 00-4.727-3.601zm-5.561 3.62a92.49 92.49 0 011.187 3.84c1.241-2.454 2.351-4.98 3.542-7.462-1.576 1.21-3.17 2.391-4.729 3.621zm-9.708-1.28c1.386.1 2.775.215 4.166.24.752-2.222 1.619-4.401 2.407-6.61-2.24 2.068-4.403 4.227-6.573 6.37zM42.954.945c-.634 2.471-1.472 4.892-2.2 7.339 1.613-.263 3.235-.478 4.855-.698-.811-2.102-1.654-4.606-2.497-6.696.073-.016.211-.035.284-.05.89 2.074 1.735 4.572 2.525 6.687 1.382-.081 2.775-.084 4.143-.299-2.145-2.04-4.392-4.284-6.53-6.332l.464.026c-.349.01-.697.016-1.044.023zM24.8 7.58c1.62.23 3.241.447 4.86.694A511.65 511.65 0 0127.365.77c-.931 2.24-1.676 4.552-2.564 6.81zm10.716-3.107c1.667 1.21 3.28 2.491 4.933 3.721a1002.07 1002.07 0 012.347-7.64c-2.433 1.296-4.886 2.555-7.28 3.919zM27.6.533c.826 2.546 1.567 5.119 2.387 7.667 1.62-1.287 3.318-2.476 4.908-3.799-2.453-1.248-4.863-2.58-7.295-3.868zM27.3.07c.474.138.89.412 1.323.64 2.188 1.187 4.399 2.334 6.582 3.527 2.626-1.41 5.25-2.824 7.892-4.208 2.52 2.462 5.069 4.892 7.572 7.373-.578 3.105-1.03 6.24-1.65 9.336-.85 1.402-1.838 2.722-2.747 4.09-.35.564-.865 1.074-.956 1.76-.611 4.284-1.263 8.562-1.889 12.843a3.367 3.367 0 01-.251.834c-2.698-4.959-5.266-9.991-7.91-14.981-.362.186-.425.67-.64.99-2.458 4.661-4.875 9.347-7.378 13.984-.262-.492-.285-1.053-.369-1.592-.496-3.271-.967-6.544-1.46-9.815-.128-.321.137-.575.26-.84.349 3.069.885 6.118 1.314 9.178.226-.936.086-1.91.14-2.863-.04-1.5.131-3.004.023-4.499-.494-.967-1.074-1.893-1.652-2.813.105.428.041.84-.251 1.176-.102-.811.014-1.728-.48-2.435-1.042-1.513-2.073-3.033-3.108-4.55-.435-.551-.426-1.28-.56-1.937-.461-2.618-.88-5.241-1.363-7.855A563.329 563.329 0 0127.301.07z" fill="#367df9" fill-rule="nonzero"/><path d="M30.395 15.195l2.713 1.274" fill="none"/><path d="M33.021 16.654l-2.713-1.274.173-.37 2.714 1.275-.174.369z" fill="#367df9" fill-rule="nonzero"/><path d="M40.109 15.195l-2.714 1.274" fill="none"/><path d="M37.482 16.654l-.173-.37 2.713-1.273.173.369-2.713 1.274z" fill="#367df9" fill-rule="nonzero"/><path d="M40.345 8.537l-2.95.653" fill="none"/><path d="M37.44 9.39l-.088-.399 2.949-.653.088.398-2.95.653z" fill="#367df9" fill-rule="nonzero"/><path d="M29.935 8.537l2.95.653" fill="none"/><path d="M32.84 9.39l-2.949-.654.088-.398 2.95.653-.088.398zm-7.349 13.526l.346 2.398-.324.167-.334-2.335.33-.3m40.297 35.406h3.856v.928h-3.856zM11.733 29.626v.908h1.863v.475h-2.338v-1.858h2.338v.475h-1.863zm-.475-1.378v-.475h2.338v.475h-2.338zM14 30.534h1.527a.463.463 0 00.322-.127.412.412 0 00.096-.142.451.451 0 00.033-.173c0-.102-.03-.18-.089-.235a.612.612 0 00-.237-.127c-.1-.03-.212-.053-.336-.068-.125-.014-.253-.03-.384-.048a3.688 3.688 0 01-.385-.072 1.056 1.056 0 01-.336-.144.72.72 0 01-.238-.261.881.881 0 01-.088-.423.92.92 0 01.926-.927h1.57v.476h-1.57a.436.436 0 00-.319.132.452.452 0 00-.132.319c0 .102.03.182.089.24.06.058.138.102.238.132.099.03.21.053.336.067.125.015.252.03.384.048.131.018.26.042.384.072.125.03.237.078.336.142.1.064.179.15.238.26a.87.87 0 01.089.417.875.875 0 01-.075.363.97.97 0 01-.199.29.936.936 0 01-.653.264H14v-.475zm4.293-2.286v2.761h-.476v-2.76h-1.075v-.476h2.626v.475h-1.075zm1.383 2.286h1.027a1.1 1.1 0 00.445-.091 1.167 1.167 0 00.607-.608 1.11 1.11 0 00.091-.444c0-.157-.03-.305-.091-.444a1.183 1.183 0 00-.245-.365 1.116 1.116 0 00-.807-.334h-.571v1.383h-.476v-1.858h1.047c.224 0 .434.042.63.127a1.65 1.65 0 01.861.862c.085.195.128.405.128.63a1.61 1.61 0 01-.475 1.145 1.666 1.666 0 01-.515.345 1.561 1.561 0 01-.629.127h-1.027v-.475zm2.934.316c0-.063.023-.118.07-.165a.227.227 0 01.165-.07c.067 0 .124.024.17.07.047.047.07.102.07.166a.232.232 0 01-.07.17.232.232 0 01-.17.07.227.227 0 01-.166-.07.232.232 0 01-.07-.17zm25.826-1.92v-.058a1.067 1.067 0 01.324-.777 1.083 1.083 0 01.78-.322 1.126 1.126 0 01.78.315 1.07 1.07 0 01.325.775c0 .08-.014.16-.041.242a1.18 1.18 0 01-.11.238 1.753 1.753 0 01-.154.216 2.104 2.104 0 01-.17.183l-.793.792h1.23v.475h-2.382l1.618-1.608.053-.053a1.266 1.266 0 00.247-.36.346.346 0 00.026-.125.615.615 0 00-.048-.243.575.575 0 00-.134-.194.662.662 0 00-.447-.178.633.633 0 00-.446.183.626.626 0 00-.183.441v.058h-.475zm2.972.461a1.146 1.146 0 001.138 1.138 1.106 1.106 0 00.802-.334 1.152 1.152 0 00.332-.804c0-.157-.03-.304-.09-.442a1.173 1.173 0 00-.242-.362 1.124 1.124 0 00-1.243-.245 1.15 1.15 0 00-.608.607c-.06.138-.089.285-.089.442zm-.475 0c0-.22.042-.43.127-.627a1.633 1.633 0 01.857-.86c.196-.084.405-.126.63-.126.22 0 .428.042.624.127a1.637 1.637 0 01.857.86c.085.196.127.405.127.626 0 .224-.042.434-.127.63a1.642 1.642 0 01-.857.856 1.55 1.55 0 01-.625.128c-.224 0-.433-.043-.629-.128a1.636 1.636 0 01-.857-.857 1.56 1.56 0 01-.127-.629zm3.985 0a1.146 1.146 0 001.58 1.05 1.123 1.123 0 00.603-.608c.059-.138.09-.285.09-.442a1.166 1.166 0 00-.332-.804 1.123 1.123 0 00-1.245-.245 1.157 1.157 0 00-.607.607 1.112 1.112 0 00-.089.442zm-.475 0c0-.22.043-.43.127-.627a1.634 1.634 0 01.857-.86c.196-.084.406-.126.63-.126.22 0 .428.042.624.127a1.635 1.635 0 01.857.86c.085.196.127.405.127.626 0 .224-.042.434-.127.63a1.641 1.641 0 01-.857.856 1.549 1.549 0 01-.624.128c-.224 0-.434-.043-.63-.128a1.64 1.64 0 01-.857-.857 1.566 1.566 0 01-.127-.629zm4.437.235a.44.44 0 00-.32.132.45.45 0 00-.131.32c0 .125.043.231.132.32a.435.435 0 00.32.131h.272a.46.46 0 00.416-.274.438.438 0 00.036-.177.443.443 0 00-.131-.32.462.462 0 00-.32-.132h-.274zm.725-.926a.444.444 0 00-.131-.32.46.46 0 00-.32-.132h-.274a.439.439 0 00-.32.132.448.448 0 00-.131.32.44.44 0 00.132.319.44.44 0 00.32.132h.272a.46.46 0 00.416-.274.439.439 0 00.036-.177zm-1.344.686a.878.878 0 01-.226-.302.912.912 0 01-.081-.384.912.912 0 01.27-.656.907.907 0 01.656-.271h.273a.904.904 0 01.656.271.912.912 0 01.272.656.913.913 0 01-.308.686.875.875 0 01.226.305.93.93 0 01-.19 1.042.925.925 0 01-.656.272h-.273a.907.907 0 01-.656-.272.911.911 0 01-.27-.655c0-.138.027-.267.08-.387a.875.875 0 01.227-.305z" fill="#367df9" fill-rule="nonzero"/></svg>