<svg viewBox="0 0 103 35" xmlns="http://www.w3.org/2000/svg" fill-rule="evenodd" clip-rule="evenodd" stroke-linejoin="round" stroke-miterlimit="2"><path d="M22.433 21.205c1.422 4.706.1 8.685-3.51 13.21h3.968c3.224-2.574 5.283-8.752 3.375-15.072l-.013-.03-1.656-5.525c-1.421-4.707-.1-8.686 3.512-13.21h-3.97c-3.227 2.573-5.284 8.752-3.375 15.071l1.656 5.526.013.03zm71.88-3.72l8.683-9.876H98.02l-6.195 7.046-6.194-7.046h-4.976l8.683 9.874-8.683 9.877h4.976l6.194-7.048 6.195 7.048h4.976l-8.683-9.875zM78.236 7.606H74.72v19.75h3.517V7.606zm-61.953-.251H.72v4h6.022v15.751h3.517v-15.75h6.023V7.354zm36.9 0v19.75H56.7v-15.75h1.76c4.849 0 8.795 4.487 8.795 10.002v5.749h3.515v-5.749c0-7.72-5.522-14.002-12.31-14.002h-5.276zm-5.24 15.748H33.275v4h14.668v-4zm0-7.617H33.275v4h14.668v-4zm0-7.627H33.275v4h14.668v-4zM78.236.69H74.72v4h3.517v-4z" fill="#367df9" fill-rule="nonzero"/></svg>